<mxfile host="app.diagrams.net" agent="Mozilla/5.0 (Windows NT 10.0; Win64; x64) AppleWebKit/537.36 (KHTML, like Gecko) Chrome/131.0.0.0 Safari/537.36" version="24.7.17">
  <diagram name="Page-1" id="-qRsSEHnnurE8UE7EGcE">
    <mxGraphModel dx="875" dy="464" grid="1" gridSize="10" guides="1" tooltips="1" connect="1" arrows="1" fold="1" page="1" pageScale="1" pageWidth="850" pageHeight="1100" math="0" shadow="0">
      <root>
        <mxCell id="0" />
        <mxCell id="1" parent="0" />
        <mxCell id="q6pytBnaq6bYR-qkNYE7-1" value="" style="swimlane;startSize=0;" vertex="1" parent="1">
          <mxGeometry x="130" y="80" width="910" height="350" as="geometry" />
        </mxCell>
        <mxCell id="q6pytBnaq6bYR-qkNYE7-5" value="" style="edgeStyle=orthogonalEdgeStyle;rounded=0;orthogonalLoop=1;jettySize=auto;html=1;entryX=0;entryY=0.5;entryDx=0;entryDy=0;" edge="1" parent="q6pytBnaq6bYR-qkNYE7-1" source="q6pytBnaq6bYR-qkNYE7-2">
          <mxGeometry relative="1" as="geometry">
            <mxPoint x="150" y="178" as="targetPoint" />
          </mxGeometry>
        </mxCell>
        <mxCell id="q6pytBnaq6bYR-qkNYE7-10" value="Speech" style="edgeLabel;html=1;align=center;verticalAlign=middle;resizable=0;points=[];" vertex="1" connectable="0" parent="q6pytBnaq6bYR-qkNYE7-5">
          <mxGeometry x="-0.0735" relative="1" as="geometry">
            <mxPoint as="offset" />
          </mxGeometry>
        </mxCell>
        <mxCell id="q6pytBnaq6bYR-qkNYE7-2" value="" style="html=1;verticalLabelPosition=bottom;align=center;labelBackgroundColor=#ffffff;verticalAlign=top;strokeWidth=2;strokeColor=#000000;shadow=0;dashed=0;shape=mxgraph.ios7.icons.microphone;" vertex="1" parent="q6pytBnaq6bYR-qkNYE7-1">
          <mxGeometry x="90" y="163" width="12" height="30" as="geometry" />
        </mxCell>
        <mxCell id="q6pytBnaq6bYR-qkNYE7-3" value="" style="verticalLabelPosition=bottom;html=1;verticalAlign=top;align=center;strokeColor=none;fillColor=#00BEF2;shape=mxgraph.azure.user;" vertex="1" parent="q6pytBnaq6bYR-qkNYE7-1">
          <mxGeometry x="10" y="140" width="66.5" height="70" as="geometry" />
        </mxCell>
        <mxCell id="q6pytBnaq6bYR-qkNYE7-14" value="" style="edgeStyle=orthogonalEdgeStyle;rounded=0;orthogonalLoop=1;jettySize=auto;html=1;" edge="1" parent="q6pytBnaq6bYR-qkNYE7-1">
          <mxGeometry relative="1" as="geometry">
            <mxPoint x="310" y="178" as="sourcePoint" />
            <mxPoint x="430" y="178" as="targetPoint" />
          </mxGeometry>
        </mxCell>
        <mxCell id="q6pytBnaq6bYR-qkNYE7-15" value="Transcription" style="edgeLabel;html=1;align=center;verticalAlign=middle;resizable=0;points=[];" vertex="1" connectable="0" parent="q6pytBnaq6bYR-qkNYE7-14">
          <mxGeometry x="-0.3117" y="-1" relative="1" as="geometry">
            <mxPoint as="offset" />
          </mxGeometry>
        </mxCell>
        <mxCell id="q6pytBnaq6bYR-qkNYE7-8" value="(groq-whisper-large-v3)" style="swimlane;whiteSpace=wrap;html=1;" vertex="1" parent="q6pytBnaq6bYR-qkNYE7-1">
          <mxGeometry x="150" y="100" width="160" height="150" as="geometry" />
        </mxCell>
        <mxCell id="q6pytBnaq6bYR-qkNYE7-9" value="Converts the speech into text&lt;div&gt;(Transcription)&lt;/div&gt;" style="text;html=1;align=center;verticalAlign=middle;resizable=0;points=[];autosize=1;strokeColor=none;fillColor=none;fontSize=10;" vertex="1" parent="q6pytBnaq6bYR-qkNYE7-8">
          <mxGeometry x="10" y="58" width="150" height="40" as="geometry" />
        </mxCell>
        <mxCell id="q6pytBnaq6bYR-qkNYE7-12" value="(groq-llama-3.1-70b-versatile)" style="swimlane;whiteSpace=wrap;html=1;" vertex="1" parent="q6pytBnaq6bYR-qkNYE7-1">
          <mxGeometry x="430" y="95" width="170" height="160" as="geometry" />
        </mxCell>
        <mxCell id="q6pytBnaq6bYR-qkNYE7-13" value="Converts the speech into text" style="text;html=1;align=center;verticalAlign=middle;resizable=0;points=[];autosize=1;strokeColor=none;fillColor=none;fontSize=10;" vertex="1" parent="q6pytBnaq6bYR-qkNYE7-12">
          <mxGeometry x="10" y="63" width="150" height="30" as="geometry" />
        </mxCell>
        <mxCell id="q6pytBnaq6bYR-qkNYE7-17" value="" style="edgeStyle=orthogonalEdgeStyle;rounded=0;orthogonalLoop=1;jettySize=auto;html=1;entryX=0.437;entryY=0.005;entryDx=0;entryDy=0;entryPerimeter=0;" edge="1" parent="q6pytBnaq6bYR-qkNYE7-1">
          <mxGeometry relative="1" as="geometry">
            <mxPoint x="505" y="83" as="sourcePoint" />
            <mxPoint x="504.28999999999996" y="98.79999999999995" as="targetPoint" />
          </mxGeometry>
        </mxCell>
        <mxCell id="q6pytBnaq6bYR-qkNYE7-16" value="&lt;h1 style=&quot;margin-top: 0px; font-size: 11px;&quot;&gt;Prompts&lt;/h1&gt;&lt;div style=&quot;font-size: 11px;&quot;&gt;Specific system prompts for each modules&lt;/div&gt;" style="text;html=1;whiteSpace=wrap;overflow=hidden;rounded=0;fontSize=11;" vertex="1" parent="q6pytBnaq6bYR-qkNYE7-1">
          <mxGeometry x="460" y="20" width="125" height="80" as="geometry" />
        </mxCell>
        <mxCell id="q6pytBnaq6bYR-qkNYE7-20" value="Deepgram TTS" style="swimlane;whiteSpace=wrap;html=1;" vertex="1" parent="q6pytBnaq6bYR-qkNYE7-1">
          <mxGeometry x="660" y="90" width="180" height="160" as="geometry" />
        </mxCell>
      </root>
    </mxGraphModel>
  </diagram>
</mxfile>
